<?xml version="1.0" standalone="no"?>
<!DOCTYPE svg PUBLIC "-//W3C//DTD SVG 20010904//EN"
 "http://www.w3.org/TR/2001/REC-SVG-20010904/DTD/svg10.dtd">
<svg version="1.0" xmlns="http://www.w3.org/2000/svg"
 width="300.000000pt" height="238.000000pt" viewBox="0 0 300.000000 238.000000"
 preserveAspectRatio="xMidYMid meet">
<metadata>
Created by potrace 1.10, written by Peter Selinger 2001-2011
</metadata>
<g transform="translate(0.000000,238.000000) scale(0.050000,-0.050000)"
fill="#000000" stroke="none">
<path d="M2790 4681 c-99 -32 -246 -80 -327 -108 -130 -45 -160 -48 -261 -30
-103 18 -139 13 -353 -44 -132 -35 -336 -88 -454 -118 -118 -29 -220 -59 -226
-65 -6 -7 89 -290 212 -629 l224 -617 117 -120 117 -120 5 -240 6 -239 147
-34 c81 -19 149 -37 152 -41 3 -3 18 -44 33 -90 20 -60 133 -205 394 -502 201
-230 378 -435 394 -456 27 -36 31 -34 94 42 36 44 215 249 396 455 234 266
338 401 358 460 35 108 17 95 186 133 l146 33 6 240 5 239 117 120 c97 100
126 147 172 280 30 88 127 354 215 590 205 551 211 493 -55 560 -121 31 -327
84 -458 119 -212 57 -252 62 -350 44 -107 -18 -128 -14 -441 89 -382 125 -341
122 -571 49z m33 -225 c164 -22 177 -26 177 -69 0 -44 -51 -47 -80 -5 -6 9
-54 19 -105 22 -52 3 -95 13 -95 21 0 8 -20 15 -45 15 -25 0 -58 9 -75 20 -41
27 0 26 223 -4z m437 -16 c-27 -9 -90 -16 -140 -16 -81 1 -84 2 -30 16 86 22
238 22 170 0z m-712 -71 c509 -65 430 -65 935 1 l432 56 378 -96 c207 -53 379
-98 382 -100 3 -2 -36 -115 -86 -252 -51 -136 -141 -387 -202 -558 l-109 -310
-230 -231 -229 -231 -62 -233 -62 -233 -349 -400 -350 -400 -53 64 c-29 35
-182 211 -339 391 -311 356 -304 345 -375 622 l-48 189 -230 231 c-223 224
-232 236 -289 401 -33 94 -123 345 -201 558 -78 214 -139 390 -136 393 15 14
714 185 763 187 32 1 239 -21 460 -49z m-494 -1714 c62 -68 86 -125 84 -199
-2 -62 -4 -59 -32 34 -17 55 -53 125 -82 155 -28 30 -42 55 -31 55 11 0 38
-20 61 -45z"/>
<path d="M2100 4282 c25 -14 252 -53 880 -151 28 -4 113 4 190 19 77 15 262
46 410 70 291 46 331 55 315 71 -5 6 -214 -18 -462 -53 l-452 -63 -426 63
c-457 67 -505 72 -455 44z"/>
<path d="M3002 3950 c1 -120 4 -131 20 -76 10 35 27 70 38 76 11 7 20 23 20
36 0 14 -8 12 -20 -6 -16 -25 -19 -23 -20 10 0 22 -9 54 -20 70 -13 21 -19
-13 -18 -110z"/>
<path d="M3053 3755 c-17 -58 -40 -145 -53 -195 -13 -49 -63 -222 -112 -383
-102 -338 -103 -348 -43 -364 58 -15 64 -7 111 157 22 77 87 301 145 497 85
292 99 361 77 375 -64 40 -95 19 -125 -87z"/>
<path d="M2492 3524 l-193 -192 195 -196 195 -195 54 52 c68 65 58 88 -93 221
-137 120 -137 118 22 263 l131 121 -36 50 c-61 83 -75 77 -275 -124z"/>
<path d="M3256 3685 c-66 -77 -63 -87 72 -223 l132 -133 -130 -129 c-146 -145
-152 -160 -76 -219 l54 -43 196 196 196 195 -195 196 c-214 214 -206 210 -249
160z"/>
<path d="M3990 3016 c-357 -312 -311 -245 -372 -537 -66 -322 -40 -323 34 -1
l54 238 217 194 c119 107 217 203 217 212 0 26 3 28 -150 -106z"/>
<path d="M1980 3017 c61 -59 159 -151 218 -206 107 -98 108 -100 162 -325 48
-201 80 -294 80 -232 0 32 -98 467 -109 485 -16 25 -397 352 -431 370 -16 8
20 -33 80 -92z"/>
<path d="M3000 2680 c0 -167 5 -197 29 -187 17 6 29 17 28 24 -5 41 6 64 26
51 16 -10 18 -5 6 14 -10 15 -20 69 -22 118 -7 138 -12 157 -40 169 -21 8 -27
-32 -27 -189z"/>
<path d="M2965 2406 c-43 -8 -45 -18 -45 -195 l0 -187 73 -13 c74 -14 122 9
98 47 -7 12 -35 22 -62 22 -39 0 -49 10 -49 50 0 37 11 50 40 50 22 0 40 13
40 30 0 17 -18 30 -40 30 -30 0 -40 13 -40 56 0 48 8 55 55 55 36 -1 55 9 55
29 0 31 -49 42 -125 26z"/>
<path d="M3151 2389 c-22 -23 -31 -72 -31 -179 0 -187 42 -243 141 -189 48 25
55 139 9 139 -17 0 -30 -18 -30 -40 0 -22 -13 -40 -30 -40 -24 0 -30 28 -30
129 0 126 32 195 53 114 18 -68 67 -71 67 -3 0 88 -88 129 -149 69z"/>
<path d="M2724 2205 c7 -213 59 -293 72 -110 5 69 14 85 45 85 51 0 50 41 -1
54 -57 15 -54 101 3 110 89 13 64 56 -32 56 l-92 0 5 -195z"/>
<path d="M3002 1745 c0 -118 6 -201 12 -185 7 17 21 53 32 80 11 28 22 59 24
70 2 11 6 29 9 40 14 53 -6 137 -41 172 -37 37 -38 35 -36 -177z"/>
<path d="M145 745 c149 -6 155 -8 155 -56 0 -45 -8 -49 -90 -49 l-90 0 0 -110
0 -110 69 0 c62 0 69 -6 77 -65 7 -64 8 -64 11 10 3 73 1 75 -67 75 -70 0 -70
0 -70 90 l0 90 90 0 c90 0 90 0 90 70 l0 70 -165 -4 -165 -4 155 -7z"/>
<path d="M340 380 l0 -380 70 0 70 0 -4 155 -4 155 -7 -145 c-6 -139 -9 -145
-56 -145 l-49 0 0 360 0 360 116 0 c159 0 186 -25 204 -182 l15 -128 2 116 c4
167 -46 214 -226 214 l-131 0 0 -380z"/>
<path d="M1022 702 c99 -100 85 -596 -20 -676 -22 -17 -24 -25 -7 -25 139 -4
151 694 14 747 -51 19 -50 16 13 -46z"/>
<path d="M1192 746 c77 -8 83 -13 115 -102 18 -52 28 -70 23 -40 -25 136 -43
156 -135 153 l-85 -4 82 -7z"/>
<path d="M1380 615 c0 -80 -6 -165 -13 -190 -7 -27 -3 -45 11 -45 14 0 22 60
22 179 l0 178 55 9 c51 7 50 8 -10 11 l-65 3 0 -145z"/>
<path d="M1520 690 c0 -64 5 -70 59 -70 l60 0 6 -285 6 -285 5 295 4 295 -60
0 c-51 0 -60 8 -60 50 0 49 2 50 170 50 167 0 170 -1 170 -49 0 -37 -12 -50
-55 -57 -51 -7 -50 -8 10 -11 62 -3 65 1 65 67 l0 70 -190 0 -190 0 0 -70z"/>
<path d="M2109 734 c-6 -14 -8 -183 -4 -375 l5 -349 165 -6 165 -6 0 71 c0 71
0 71 -89 71 l-89 0 -7 95 -8 95 -3 -105 -4 -105 90 0 c83 0 90 -4 90 -50 0
-49 -3 -50 -150 -50 l-150 0 0 360 0 360 150 0 c147 0 150 -1 150 -50 0 -46
-7 -50 -90 -50 l-90 0 0 -100 0 -100 85 3 85 4 -75 8 c-73 7 -75 10 -75 86 l0
79 90 0 c90 0 90 0 90 70 l0 70 -161 0 c-112 0 -163 -8 -170 -26z"/>
<path d="M2469 734 c-6 -14 -7 -174 -4 -355 l6 -329 5 345 4 345 66 0 c63 0
68 -6 102 -112 46 -146 59 -131 16 17 -34 117 -162 175 -195 89z"/>
<path d="M2731 736 c-17 -53 -24 -356 -8 -356 9 0 17 81 17 180 0 179 0 180
50 180 l50 0 0 -362 0 -362 -70 8 c-40 4 -62 0 -52 -10 9 -9 43 -14 75 -11
l57 7 0 370 0 370 -55 6 c-33 4 -59 -4 -64 -20z"/>
<path d="M2889 734 c-6 -14 -8 -183 -4 -375 l5 -349 132 -6 c213 -9 226 10
235 336 7 291 -11 371 -91 402 -74 28 -265 23 -277 -8z m303 -45 c50 -50 51
-53 45 -329 -8 -331 -13 -338 -212 -339 l-125 -1 0 360 0 360 121 0 c103 0
128 -8 171 -51z"/>
<path d="M3000 380 l0 -260 55 3 c47 2 49 4 10 11 -44 9 -45 16 -45 249 0 237
0 240 45 233 43 -6 46 -17 56 -236 l11 -230 4 221 c4 236 -7 269 -90 269 -46
0 -46 -2 -46 -260z"/>
<path d="M3498 708 c-110 -118 -55 -708 67 -708 9 0 -8 23 -39 52 -117 109
-85 637 42 689 29 11 32 17 10 18 -17 0 -53 -22 -80 -51z"/>
<path d="M3700 745 c31 -12 80 -70 104 -124 11 -27 13 -27 15 1 2 47 -76 138
-115 136 -28 -1 -29 -3 -4 -13z"/>
<path d="M3932 725 c-5 -19 -14 -71 -20 -115 -9 -69 -7 -66 15 20 33 133 191
171 195 46 1 -36 10 -88 19 -116 17 -50 5 120 -12 175 -13 41 -184 33 -197
-10z"/>
<path d="M4260 380 l0 -380 70 0 70 0 -4 155 -4 155 -7 -145 c-6 -139 -9 -145
-56 -145 l-49 0 0 360 0 360 116 0 c190 0 279 -135 197 -299 -27 -55 -27 -70
-2 -131 58 -138 40 -286 -36 -296 -64 -7 -64 -8 10 -11 l75 -3 -1 125 c0 69
-12 152 -27 185 -21 50 -21 72 3 129 77 185 -19 321 -228 321 l-127 0 0 -380z"/>
<path d="M4890 727 c-76 -76 -106 -552 -40 -638 27 -36 28 -34 8 25 -47 142
-15 544 48 598 31 26 47 48 37 48 -11 0 -35 -15 -53 -33z"/>
<path d="M5277 722 c-50 -41 -85 -535 -44 -610 10 -16 14 78 10 212 -8 305 3
367 73 405 30 16 44 30 31 30 -12 1 -44 -16 -70 -37z"/>
<path d="M5784 746 c59 -5 97 -19 103 -37 6 -19 8 -17 6 6 -3 28 -23 35 -103
37 l-100 2 94 -8z"/>
<path d="M5555 590 c11 -101 -62 -142 -81 -45 -7 39 -9 37 -11 -10 -3 -48 4
-55 57 -55 61 0 96 156 42 188 -9 6 -12 -29 -7 -78z"/>
<path d="M5663 527 c-14 -72 -21 -136 -16 -140 4 -5 19 51 33 123 14 72 21
136 16 141 -5 5 -20 -51 -33 -124z"/>
<path d="M460 530 c0 -107 1 -110 55 -107 47 2 49 4 10 11 -39 8 -45 21 -45
99 0 121 64 119 82 -3 l12 -80 3 71 c3 78 -25 119 -81 119 -30 0 -36 -17 -36
-110z"/>
<path d="M872 624 c-5 -10 10 -16 34 -15 42 1 44 -8 55 -229 l11 -230 4 213
c2 118 -1 228 -8 245 -13 34 -78 44 -96 16z"/>
<path d="M4380 529 c0 -109 1 -112 53 -105 30 3 56 17 59 32 3 14 0 16 -5 5
-31 -63 -87 -19 -87 69 0 92 27 115 76 66 16 -16 24 -17 24 -2 0 23 -45 46
-92 46 -21 0 -28 -29 -28 -111z"/>
<path d="M4964 616 c-16 -16 -23 -95 -20 -245 l4 -221 11 230 c10 213 14 230
51 230 48 0 73 -408 28 -462 -14 -17 -15 -28 -3 -28 35 0 45 57 45 268 0 199
-15 252 -70 252 -12 0 -33 -11 -46 -24z"/>
<path d="M5188 380 c0 -137 3 -194 7 -125 4 69 4 181 0 250 -4 69 -7 13 -7
-125z"/>
<path d="M728 380 c0 -126 3 -178 7 -115 4 63 4 167 0 230 -4 63 -7 12 -7
-115z"/>
<path d="M3683 545 c-3 -63 0 -65 72 -62 72 3 73 4 11 11 -51 7 -65 19 -72 62
-7 49 -8 48 -11 -11z"/>
<path d="M5348 380 c0 -126 3 -178 7 -115 4 63 4 167 0 230 -4 63 -7 12 -7
-115z"/>
<path d="M844 377 c-3 -181 1 -216 31 -240 31 -24 32 -23 11 4 -15 19 -27 117
-31 240 l-7 209 -4 -213z"/>
<path d="M3587 380 c0 -116 4 -163 8 -105 4 58 4 152 0 210 -4 58 -8 11 -8
-105z"/>
<path d="M1848 431 c-34 -87 -2 -121 117 -127 l115 -6 -3 76 c-3 74 -4 74 -11
11 -13 -97 -206 -103 -206 -6 0 55 6 59 85 66 l85 8 -86 4 c-58 2 -89 -6 -96
-26z"/>
<path d="M2594 448 c-8 -8 -14 -107 -14 -220 l0 -205 -55 -9 c-51 -7 -50 -8
10 -11 l65 -3 0 205 c1 140 7 195 20 175 22 -34 24 -7 3 46 -8 20 -21 30 -29
22z"/>
<path d="M1240 231 l0 -208 -65 -9 -65 -8 66 -3 c37 -2 69 8 73 22 17 50 22
415 7 415 -9 0 -16 -94 -16 -209z"/>
<path d="M3863 287 c-14 -72 -21 -136 -16 -140 4 -5 19 51 33 123 14 72 21
136 16 141 -5 5 -20 -51 -33 -124z"/>
<path d="M658 385 c-2 -8 0 -24 2 -35 3 -11 11 -90 18 -175 l13 -155 -61 -3
c-49 -2 -52 -4 -14 -11 97 -19 105 30 61 369 -4 28 -16 34 -19 10z"/>
<path d="M5820 310 c0 -57 -52 -69 -66 -15 -7 26 -10 24 -12 -10 -1 -35 9 -45
48 -45 42 0 50 9 50 60 0 33 -4 60 -10 60 -5 0 -10 -22 -10 -50z"/>
<path d="M124 166 l-4 -143 -65 -9 -65 -8 66 -3 c80 -4 88 14 79 179 l-7 128
-4 -144z"/>
<path d="M560 164 l9 -134 7 118 c3 65 -1 125 -10 134 -9 9 -12 -44 -6 -118z"/>
<path d="M3962 125 c1 -21 5 -25 11 -10 6 14 31 25 57 25 26 0 51 -11 57 -25
6 -15 10 -11 11 10 2 27 -14 35 -68 35 -54 0 -70 -8 -68 -35z"/>
<path d="M5712 128 c-7 -17 -11 -46 -10 -65 1 -18 8 -11 16 17 17 63 113 83
128 26 7 -28 10 -27 12 9 3 56 -125 68 -146 13z"/>
<path d="M4220 60 c0 -52 -93 -57 -106 -5 -7 26 -10 24 -12 -10 -2 -39 8 -45
68 -45 61 0 70 6 70 50 0 28 -4 50 -10 50 -5 0 -10 -18 -10 -40z"/>
</g>
</svg>
