<svg version="1.0" xmlns="http://www.w3.org/2000/svg" width="300.000000pt" height="238.000000pt" viewBox="0 0 300.000000 238.000000">
<g transform="translate(0.000000,238.000000) scale(0.050000,-0.050000)" fill="#000000" stroke="none">
<path d="M2790 4681 c-99 -32 -246 -80 -327 -108 -130 -45 -160 -48 -261 -30
-103 18 -139 13 -353 -44 -132 -35 -336 -88 -454 -118 -118 -29 -220 -59 -226
-65 -6 -7 89 -290 212 -629 l224 -617 117 -120 117 -120 5 -240 6 -239 147
-34 c81 -19 149 -37 152 -41 3 -3 18 -44 33 -90 20 -60 133 -205 394 -502 201
-230 378 -435 394 -456 27 -36 31 -34 94 42 36 44 215 249 396 455 234 266
338 401 358 460 35 108 17 95 186 133 l146 33 6 240 5 239 117 120 c97 100
126 147 172 280 30 88 127 354 215 590 205 551 211 493 -55 560 -121 31 -327
84 -458 119 -212 57 -252 62 -350 44 -107 -18 -128 -14 -441 89 -382 125 -341
122 -571 49z m33 -225 c164 -22 177 -26 177 -69 0 -44 -51 -47 -80 -5 -6 9
-54 19 -105 22 -52 3 -95 13 -95 21 0 8 -20 15 -45 15 -25 0 -58 9 -75 20 -41
27 0 26 223 -4z m437 -16 c-27 -9 -90 -16 -140 -16 -81 1 -84 2 -30 16 86 22
238 22 170 0z m-712 -71 c509 -65 430 -65 935 1 l432 56 378 -96 c207 -53 379
-98 382 -100 3 -2 -36 -115 -86 -252 -51 -136 -141 -387 -202 -558 l-109 -310
-230 -231 -229 -231 -62 -233 -62 -233 -349 -400 -350 -400 -53 64 c-29 35
-182 211 -339 391 -311 356 -304 345 -375 622 l-48 189 -230 231 c-223 224
-232 236 -289 401 -33 94 -123 345 -201 558 -78 214 -139 390 -136 393 15 14
714 185 763 187 32 1 239 -21 460 -49z m-494 -1714 c62 -68 86 -125 84 -199
-2 -62 -4 -59 -32 34 -17 55 -53 125 -82 155 -28 30 -42 55 -31 55 11 0 38
-20 61 -45z"></path>
<path d="M2100 4282 c25 -14 252 -53 880 -151 28 -4 113 4 190 19 77 15 262
46 410 70 291 46 331 55 315 71 -5 6 -214 -18 -462 -53 l-452 -63 -426 63
c-457 67 -505 72 -455 44z"></path>
<path d="M3002 3950 c1 -120 4 -131 20 -76 10 35 27 70 38 76 11 7 20 23 20
36 0 14 -8 12 -20 -6 -16 -25 -19 -23 -20 10 0 22 -9 54 -20 70 -13 21 -19
-13 -18 -110z"></path>
<path d="M3053 3755 c-17 -58 -40 -145 -53 -195 -13 -49 -63 -222 -112 -383
-102 -338 -103 -348 -43 -364 58 -15 64 -7 111 157 22 77 87 301 145 497 85
292 99 361 77 375 -64 40 -95 19 -125 -87z"></path>
<path d="M2492 3524 l-193 -192 195 -196 195 -195 54 52 c68 65 58 88 -93 221
-137 120 -137 118 22 263 l131 121 -36 50 c-61 83 -75 77 -275 -124z"></path>
<path d="M3256 3685 c-66 -77 -63 -87 72 -223 l132 -133 -130 -129 c-146 -145
-152 -160 -76 -219 l54 -43 196 196 196 195 -195 196 c-214 214 -206 210 -249
160z"></path>
<path d="M3990 3016 c-357 -312 -311 -245 -372 -537 -66 -322 -40 -323 34 -1
l54 238 217 194 c119 107 217 203 217 212 0 26 3 28 -150 -106z"></path>
<path d="M1980 3017 c61 -59 159 -151 218 -206 107 -98 108 -100 162 -325 48
-201 80 -294 80 -232 0 32 -98 467 -109 485 -16 25 -397 352 -431 370 -16 8
20 -33 80 -92z"></path>
<path d="M3000 2680 c0 -167 5 -197 29 -187 17 6 29 17 28 24 -5 41 6 64 26
51 16 -10 18 -5 6 14 -10 15 -20 69 -22 118 -7 138 -12 157 -40 169 -21 8 -27
-32 -27 -189z"></path>
<path d="M2965 2406 c-43 -8 -45 -18 -45 -195 l0 -187 73 -13 c74 -14 122 9
98 47 -7 12 -35 22 -62 22 -39 0 -49 10 -49 50 0 37 11 50 40 50 22 0 40 13
40 30 0 17 -18 30 -40 30 -30 0 -40 13 -40 56 0 48 8 55 55 55 36 -1 55 9 55
29 0 31 -49 42 -125 26z"></path>
<path d="M3151 2389 c-22 -23 -31 -72 -31 -179 0 -187 42 -243 141 -189 48 25
55 139 9 139 -17 0 -30 -18 -30 -40 0 -22 -13 -40 -30 -40 -24 0 -30 28 -30
129 0 126 32 195 53 114 18 -68 67 -71 67 -3 0 88 -88 129 -149 69z"></path>
<path d="M2724 2205 c7 -213 59 -293 72 -110 5 69 14 85 45 85 51 0 50 41 -1
54 -57 15 -54 101 3 110 89 13 64 56 -32 56 l-92 0 5 -195z"></path>
<path d="M3002 1745 c0 -118 6 -201 12 -185 7 17 21 53 32 80 11 28 22 59 24
70 2 11 6 29 9 40 14 53 -6 137 -41 172 -37 37 -38 35 -36 -177z"></path>

</g>
</svg>