<?xml version="1.0" encoding="UTF-8" standalone="no"?>
<svg width="82px" height="80px" viewBox="0 0 82 80" version="1.1" xmlns="http://www.w3.org/2000/svg" xmlns:xlink="http://www.w3.org/1999/xlink">
    <g id="Page-2" stroke="none" stroke-width="1" fill="none" fill-rule="evenodd">
        <g id="logo-fec" transform="translate(1.000000, 1.000000)">
            <polygon id="Path-9" stroke="#002A41" fill="#002A41" points="26.2496266 5.03545125 41.0045376 0.0419690613 55.8342806 5.42883933 66.3076535 42.7502988 66.3481876 53.1940506 59.5727665 54.7624063 22.6041611 55.3007815 15.6203535 53.5474243 15.6026848 43.600994"></polygon>
            <g id="Borda" transform="translate(0.000000, 5.000000)" stroke-width="2">
                <polygon id="Path-1" stroke="#46413D" points="19.8744867 0.843142569 39.3405043 3.46052462 39.3405043 71.414691 23.4486148 53.6817046 20.8455016 43.1138869 10.4864184 32.8636618 0.807442366 5.85648829"></polygon>
                <polygon id="Path-1-Copy" stroke="#2C2925" points="40.7715308 3.4784916 41.2676261 71.2642851 56.4330184 53.3572417 59.36958 42.3423606 69.6018359 32.4282256 79.1756518 5.6910854 60.6812359 0.843142569"></polygon>
            </g>
            <g id="Interior" transform="translate(2.000000, 7.000000)">
                <polygon id="Path-3" stroke="#CB8B12" fill="#CB8B12" points="0.758170355 4.88613415 17.8773043 0.356167316 37.3076479 2.85720576 37.8113176 67.6841344 22.7957775 51.0938992 20.2161629 40.334702 9.77490543 30.0338407"></polygon>
                <polygon id="Path-3-Copy" stroke="#B46A08" fill="#B46A08" transform="translate(56.758704, 34.022569) scale(-1, 1) translate(-56.758704, -34.022569) " points="38.2972994 4.6839206 54.9232831 0.366222117 75.2201085 2.87172927 74.713738 67.6789159 60.3530622 50.6224393 57.4862332 39.5508031 47.156602 29.6114461"></polygon>
            </g>
            <g id="Frizo-superior" transform="translate(21.000000, 10.000000)" stroke-width="0.300000012">
                <polygon id="Path-5" stroke="#46413D" fill="#46413D" points="0.0780234576 0.55307574 19.8852902 3.2223045 19.8852902 3.98106543"></polygon>
                <polygon id="Path-5-Copy" stroke="#2C2925" fill="#2C2925" transform="translate(29.981657, 2.267071) scale(-1, 1) translate(-29.981657, -2.267071) " points="20.0780235 0.55307574 39.8852902 3.2223045 39.8852902 3.98106543"></polygon>
            </g>
            <g id="Frizo-lateral" transform="translate(41.713758, 41.056339) rotate(-126.000000) translate(-41.713758, -41.056339) translate(22.713758, 20.556339)" stroke-width="0.300000012">
                <path d="M14.8341245,2.53415675 L26.9804142,5.29178655 C26.9804142,5.29178655 37.1553554,0.612423286 37.117033,0.776714896 C37.0821427,0.92629316 26.9804142,5.76203362 26.9804142,5.76203362 L14.8341245,2.53415675 Z" id="Path-5-Copy-3" stroke="#46413D" fill="#46413D" transform="translate(25.975633, 3.267261) scale(1, -1) rotate(177.000000) translate(-25.975633, -3.267261) "></path>
                <path d="M-3.97500355,28.4227006 L8.1712861,31.1803304 C8.1712861,31.1803304 18.3462274,26.5009671 18.307905,26.6652587 C18.2730146,26.814837 8.1712861,31.6505774 8.1712861,31.6505774 L-3.97500355,28.4227006 Z" id="Path-5-Copy-4" stroke="#2C2925" fill="#2C2925" transform="translate(7.166505, 29.155805) rotate(246.000000) translate(-7.166505, -29.155805) "></path>
            </g>
            <g id="Simbolo" transform="translate(24.000000, 20.000000)">
                <polygon id="Path-10" stroke="#46413D" fill="#46413D" transform="translate(8.556829, 12.103923) rotate(-127.000000) translate(-8.556829, -12.103923) " points="14.8405282 17.5399172 12.4247729 17.8633644 11.2424695 9.34827273 2.61633156 10.4265358 2.27312917 7.92929761 13.4232373 6.34448163"></polygon>
                <polygon id="Path-10-Copy" stroke="#2C2925" fill="#2C2925" transform="translate(23.237816, 12.041178) scale(-1, 1) rotate(-127.000000) translate(-23.237816, -12.041178) " points="29.6356818 17.4192134 26.9181486 17.8367644 25.8828036 9.09899863 17.2208923 10.4157105 16.8399502 7.72239086 27.9124066 6.24559218"></polygon>
                <polygon id="Path-12" stroke="#2C2925" stroke-width="0.200000018" fill="#2C2925" points="16.0871306 6.34630063 16.0871306 15.2604699 20.4723501 0.782763685 18.1356323 0.0854277862"></polygon>
                <polygon id="Path-12-Copy" stroke="#46413D" stroke-width="0.200000018" fill="#46413D" transform="translate(13.745683, 14.928896) scale(-1, -1) translate(-13.745683, -14.928896) " points="11.5308809 14.2380868 11.5308809 23.1599403 15.9604852 7.53193972 13.7456832 6.69785213"></polygon>
            </g>
            <g id="FEC" transform="translate(34.000000, 52.000000)" stroke-width="0.100000001">
                <path d="M0.064453125,4.75952148 L0.064453125,0.383213754 C0.064453125,0.383213754 2.3785241,0.401864135 3.46206601,0.383496695 C3.4676298,0.383402381 3.49511719,0.383496694 3.49511719,0.383496694 L3.49511719,1.40887451 L1.34143066,1.40887451 L1.34143066,4.13098144 L3.22875977,4.13098144 L3.22875977,5.25469994 L1.37878418,5.25469971 L1.34143066,8.78759766 L0.064453125,8.80322266 L0.064453125,4.75952148 Z" id="Path-14" stroke="#46413D" fill="#46413D"></path>
                <path d="M4.29119873,0.344720195 L8.07994189,0.299987793 C8.08356803,0.29994498 8.05200195,1.441522 8.05200195,1.441522 L5.63946533,1.44152195 L5.62927246,3.82891209 L7.45465088,3.82555516 L7.43359375,5.18676121 L5.62927246,5.18676138 L5.62927246,7.69854116 L8.05200195,7.69854116 L8.05200195,8.76152897 L4.29119873,8.76152897 L4.29119873,0.344720195 Z" id="Path-15" stroke="#46413D" fill="#46413D"></path>
                <polygon id="Path-16" stroke="#2C2925" fill="#2C2925" points="6.02990723 0.328796387 8.04364014 0.328796387 8.04364014 1.40643311 6.02990723 1.40643311"></polygon>
                <polygon id="Path-16-Copy" stroke="#2C2925" fill="#2C2925" points="6.02990723 3.82998657 7.43990719 3.82998657 7.43990719 5.1799866 6.02990723 5.1799866"></polygon>
                <polygon id="Path-16-Copy-2" stroke="#2C2925" fill="#2C2925" points="6.02990723 7.70001221 8.03990722 7.70001221 8.03990722 8.75001216 6.02990723 8.75001216"></polygon>
                <path d="M11.6400757,3.09759521 L12.6737061,3.09759521 L12.6261597,1.36602783 C12.6261597,1.36602783 12.1374512,0.152954102 10.7555847,0.152954102 C9.13433838,0.152954102 8.83331299,1.26062012 8.83331299,1.26062012 L8.81433105,7.74267578 C8.81433105,7.74267578 9,9 10.8622568,9 C12.7245135,9 12.6968384,7.72839355 12.6968384,7.72839355 L12.6696777,5.96282959 L11.6101685,5.97369385 L11.6427612,7.3369751 C11.6427612,7.3369751 11.6099854,7.73001099 10.9054565,7.73001099 C9.8999939,7.73001099 9.97851563,7.33355713 9.97851563,7.33355713 L9.92962646,1.81658936 C9.92962646,1.81658936 10.019989,1.19000244 10.8622568,1.29302471 C11.5040663,1.20001221 11.6427612,1.72692871 11.6427612,1.72692871 C11.6708403,1.75329687 11.6400757,3.09759521 11.6400757,3.09759521 Z" id="Path-19" stroke="#2C2925" fill="#2C2925"></path>
            </g>
        </g>
    </g>
</svg>