<svg version="1.1" x="0px" y="0px" viewBox="0 0 45 45">
  <g fill="#363C44">
    <path d="M22.793,12.196c-3.361,0-6.078-2.729-6.078-6.099C16.715,2.73,19.432,0,22.793,0c3.353,0,6.073,2.729,6.073,6.097    C28.866,9.466,26.145,12.196,22.793,12.196z" style="fill: rgb(0, 0, 0);"></path>
    <path d="M22.794,28.889c-3.361,0-6.079-2.729-6.079-6.099c0-3.366,2.717-6.099,6.078-6.099c3.353,0,6.073,2.732,6.075,6.099    C28.866,26.162,26.144,28.889,22.794,28.889z" style="fill: rgb(0, 0, 0);"></path>
    <path d="M22.794,45.583c-3.361,0-6.079-2.729-6.079-6.099s2.717-6.098,6.078-6.098c3.353-0.002,6.073,2.729,6.073,6.098    S26.144,45.583,22.794,45.583z" style="fill: rgb(0, 0, 0);"></path>
  </g>
</svg>
